<svg xmlns="http://www.w3.org/2000/svg" width="120" height="70" viewBox="0 0 89.998 52.499"><rect width="142.643" height="103.653" x="-29.417" y="-26.333" ry=".081" style="fill:#2e8b57;fill-opacity:1;stroke-width:3.66445;stroke-linejoin:bevel"/><g aria-label="x5γ TeX άtβg i*δ World qê" style="font-style:italic;font-weight:700;font-size:13.9997px;line-height:1.25;font-family:&quot;Cascadia Code&quot;;-inkscape-font-specification:&quot;Cascadia Code Bold Italic&quot;;letter-spacing:0;word-spacing:0;stroke-width:.74998"><path d="M-3.501 21.492h2.208l1.312-2.27 1.367 2.27h2.208L.901 17.855l2.693-3.61H1.386l-1.34 2.27-1.34-2.27H-3.5l2.659 3.665zM8.23 21.628c2.132 0 3.513-1.305 3.513-3.322 0-1.914-1.115-3.144-2.844-3.144a4.35 4.35 0 0 0-1.634.32l.116-2.036h3.746v-1.661H5.66l-.137 5.482h1.224a3.26 3.26 0 0 1 1.565-.39c.937 0 1.531.554 1.531 1.43 0 .97-.601 1.599-1.538 1.599-.943 0-1.47-.5-1.47-1.36h-1.9c0 1.954 1.196 3.082 3.295 3.082zM14.122 24.636h1.852c.048-.875.068-1.907.068-3.124 2.776-.533 4.15-2.946 4.15-7.266h-1.853c0 3.048-.772 4.846-2.33 5.42-.138-3.226-.753-4.498-2.475-5.694l-1.121 1.422c1.421 1.066 1.777 2.283 1.777 6.03 0 1.25-.02 2.317-.068 3.212zM31.956 21.492h1.805v-8.046h2.768v-1.661h-7.341v1.66h2.768zM41.636 21.628c.587 0 1.36-.027 2.29-.191l-.178-1.75c-.663.123-1.292.191-1.948.191-1.135 0-1.88-.437-2.16-1.278h4.6c.027-.294.041-.595.041-.936 0-2.311-1.183-3.555-3.247-3.555-2.112 0-3.329 1.38-3.329 3.746 0 2.433 1.422 3.773 3.93 3.773zm-2.085-4.313c.13-.97.663-1.51 1.497-1.51.888 0 1.415.532 1.415 1.51zM50.898 21.492h2.256l-3.015-4.806 3.015-4.901h-2.256l-1.634 3.26-1.627-3.26h-2.255l3.007 4.901-3.007 4.806h2.255l1.627-3.206zM64.768 21.628c.977 0 1.634-.485 1.723-1.449h.239l.075 1.38 2.727-.067v-1.504l-.998-.15v-5.592h-1.852v1.312h-.219c-.102-.97-.656-1.45-1.668-1.45-1.839 0-2.891 1.395-2.891 3.829 0 2.379 1.046 3.691 2.864 3.691zm1.914-3.534c0 1.196-.349 1.791-1.347 1.791-1.011 0-1.538-.656-1.538-1.948 0-1.333.554-2.085 1.525-2.085.909 0 1.36.595 1.36 1.791zm-2.16-5.133h1.825l1.408-2.598h-1.962zM75.411 21.628c.65 0 1.19-.054 1.791-.164l-.164-1.73c-.615.083-1.073.138-1.49.138-1.306 0-1.832-.472-1.832-1.58v-2.344h3.213v-1.702h-3.213v-2.188H71.87v2.188h-1.736v1.702h1.736v2.522c0 2.208 1.04 3.158 3.541 3.158zM82.787 21.628c1.709 0 2.714-1.066 2.714-2.87 0-1.682-.964-2.687-2.598-2.721v-.171c1.436-.069 2.256-.855 2.256-2.167 0-1.648-1.094-2.598-3-2.598-2.14 0-3.207 1.121-3.207 3.398v10.137h1.853v-4.348h.246c.11.855.724 1.34 1.736 1.34zm-1.982-3.691v-3.302c0-1.196.45-1.777 1.353-1.777.697 0 1.108.396 1.108 1.08 0 .738-.424 1.155-1.149 1.155h-.67v1.723h.711c.916 0 1.45.595 1.45 1.647 0 .903-.527 1.409-1.422 1.409-.923 0-1.381-.636-1.381-1.935zM87.422 24.76l2.119-.07c2.652-.088 3.807-1.257 3.807-3.841v-6.603h-1.715l-.117 1.312h-.13c-.17-.97-.71-1.45-1.811-1.45-1.811 0-2.857 1.375-2.857 3.767 0 2.42 1.046 3.753 2.843 3.753 1.012 0 1.64-.485 1.784-1.449h.15v.889c0 1.305-.546 1.975-1.817 2.01l-2.325.068zm4.074-6.885c0 1.409-.362 2.01-1.415 2.01-.964 0-1.47-.677-1.47-2.01 0-1.285.533-2.023 1.47-2.023.943 0 1.415.622 1.415 2.023zM-3.077 38.991h6.671v-1.709H1.448v-5.537h-4.115v1.71h2.27v3.827h-2.68zm3.52-8.223c.704 0 1.183-.479 1.183-1.183 0-.704-.479-1.182-1.183-1.182-.704 0-1.182.478-1.182 1.182s.478 1.183 1.182 1.183zM9.432 37.44l1.552-1.156-1.38-1.6 2.063-.567-.601-1.832-1.962.807.11-2.14H7.285l.15 2.113-1.996-.78-.608 1.832 2.05.52-1.367 1.647 1.552 1.155 1.162-1.811zM16.48 39.128c2.133 0 3.397-1.258 3.397-3.39 0-2.277-1.203-3.008-3.315-3.583-.752-.205-1.005-.526-1.005-1.011 0-.554.335-.786 1.128-.786.834 0 1.545.184 2.153.546l.697-1.572c-.86-.492-1.804-.731-2.85-.731-1.962 0-3.083.888-3.083 2.454 0 .93.465 1.763 1.818 1.99v.231c-1.483.09-2.324 1.06-2.324 2.666 0 2.003 1.258 3.186 3.384 3.186zm0-1.75c-.937 0-1.49-.608-1.49-1.64 0-1.02.601-1.69 1.49-1.69.902 0 1.504.61 1.504 1.669 0 1.046-.56 1.661-1.504 1.661zM29.817 38.991h2.454l.546-5.38h.082l.547 5.38H35.9l1.04-9.707h-1.778l-.595 8.1h-.191l-.71-5.639h-1.6l-.725 5.64h-.192l-.594-8.1h-1.778zM41.061 39.128c2.085 0 3.288-1.367 3.288-3.76 0-2.392-1.203-3.76-3.288-3.76s-3.288 1.368-3.288 3.76c0 2.393 1.203 3.76 3.288 3.76zm0-1.757c-.881 0-1.394-.724-1.394-2.003 0-1.285.513-2.003 1.394-2.003.889 0 1.395.718 1.395 2.003 0 1.279-.506 2.003-1.395 2.003zM48.97 35.874c0-1.613.445-2.522 1.347-2.522.69 0 .991.348.991 1.203h1.846c0-1.9-.759-2.946-2.133-2.946-1.169 0-1.777.58-1.852 1.77h-.26l-.212-1.634h-2.83v1.586h1.258v4.074h-1.531v1.586h5.072v-1.586H48.97zM58.547 39.128a8.45 8.45 0 0 0 2.277-.287l-.212-1.9c-.63.177-1.087.26-1.518.26-1.08 0-1.278-.39-1.278-1.3v-7.163H53.92v1.702h2.05v5.53c0 2.208.752 3.158 2.577 3.158zM64.952 39.128c1.012 0 1.641-.485 1.785-1.45h.157l.26 1.382 1.585-.069V28.738h-1.852v4.32h-.178c-.164-.97-.683-1.45-1.743-1.45-1.811 0-2.857 1.375-2.857 3.767 0 2.42 1.046 3.753 2.843 3.753zm1.935-3.753c0 1.408-.362 2.01-1.415 2.01-.964 0-1.47-.677-1.47-2.01 0-1.285.533-2.023 1.47-2.023.943 0 1.415.622 1.415 2.023zM81.29 39.128c1.032 0 1.668-.424 1.825-1.258h.178v4.266h1.852v-10.39H83.43l-.117 1.312h-.198c-.17-.97-.71-1.45-1.811-1.45-1.77 0-2.79 1.395-2.79 3.829 0 2.378 1.02 3.69 2.776 3.69zm2.003-3.855v.423c0 1.128-.479 1.689-1.456 1.689-.937 0-1.429-.656-1.429-1.948 0-1.327.52-2.085 1.429-2.085.97 0 1.456.629 1.456 1.92zM90.853 39.128c.588 0 1.36-.027 2.29-.191l-.177-1.75c-.664.123-1.292.191-1.949.191-1.134 0-1.88-.438-2.16-1.278h4.6c.028-.294.042-.595.042-.937 0-2.31-1.183-3.554-3.247-3.554-2.113 0-3.33 1.38-3.33 3.746 0 2.433 1.423 3.773 3.931 3.773zm-3.199-8.668h2.017l.608-1.51.608 1.51h2.017l-1.64-2.597h-1.97zm1.114 4.355c.13-.971.663-1.511 1.497-1.511.89 0 1.415.533 1.415 1.51z" style="font-style:normal;-inkscape-font-specification:&quot;Cascadia Code Bold&quot;;fill:#ccc"/></g></svg>